<svg xmlns="http://www.w3.org/2000/svg" viewBox="0 0 120 120" role="img" aria-labelledby="title">
  <title id="title">中国国际象棋棋手数据库</title>
  <defs>
    <symbol id="brand-mark" viewBox="0 0 120 120">
      <g fill="none" stroke="#1f3b66" stroke-linecap="round" stroke-linejoin="round" stroke-width="6">
        <path d="M12 37c16 0 29-5 40-15l8-8 8 8c11 10 24 15 40 15"/>
        <path d="M21 55c13 0 24-4 34-12l5-4 5 4c10 8 21 12 34 12"/>
        <path d="M12 37c3 7 8 11 15 13M108 37c-3 7-8 11-15 13"/>
        <path d="M60 17V6M54 11h12"/>
        <path d="M46 54h28l-5 15H51z"/>
        <path d="M51 69c-1 12-6 22-13 29h44c-7-7-12-17-13-29"/>
        <path d="M34 99h52l5 10H29z"/>
      </g>
      <path fill="#c9a227" d="m60 76 3.2 6.5 7.2 1-5.2 5.1 1.2 7.2-6.4-3.4-6.4 3.4 1.2-7.2-5.2-5.1 7.2-1z"/>
    </symbol>
  </defs>
  <use href="#brand-mark"/>
</svg>
